<svg width="169" height="70" viewBox="0 0 169 70" fill="none" xmlns="http://www.w3.org/2000/svg">
<path d="M81.0742 21.3453C81.8453 21.1928 82.6164 21.0838 83.3875 21.0184C84.1365 20.9531 84.9517 20.9095 85.7888 20.9095C88.0801 20.9095 89.7985 21.3235 90.9441 22.1517C92.0897 22.9798 92.6625 24.2874 92.6625 26.0308C92.6625 29.4741 90.3933 31.1957 85.8329 31.1957C85.3482 31.1957 84.7093 31.1739 83.9382 31.1303V35.5978H81.0742V21.3453ZM88.1682 28.8421C88.763 28.6241 89.1816 28.2755 89.468 27.8178C89.7324 27.3602 89.8866 26.7718 89.8866 26.0526C89.8866 24.9629 89.5782 24.1784 88.9393 23.6772C88.3224 23.1759 87.353 22.9362 86.0312 22.9362C85.2821 22.9362 84.5771 23.0016 83.9162 23.1106V29.06C84.5331 29.1472 85.172 29.1908 85.8329 29.1908C86.8023 29.169 87.5734 29.06 88.1682 28.8421Z" fill="black"/>
<path d="M102.114 25.1373C102.885 25.4206 103.436 25.8782 103.81 26.532C104.185 27.1858 104.361 28.0793 104.361 29.2125V35.576H102.026L101.827 34.5082H101.695C101.299 34.9223 100.814 35.2274 100.197 35.4453C99.6023 35.6632 98.9634 35.7722 98.2804 35.7722C97.4432 35.7722 96.7603 35.6414 96.1654 35.3799C95.5926 35.1184 95.152 34.7697 94.8436 34.3121C94.5351 33.8544 94.403 33.3314 94.403 32.7212C94.403 31.7405 94.7775 30.9778 95.5486 30.4329C96.2976 29.8881 97.5093 29.5612 99.1616 29.4523L101.607 29.2343V29.0164C101.607 28.428 101.497 27.9921 101.299 27.6653C101.1 27.3384 100.77 27.1204 100.351 26.9679C99.9327 26.8371 99.3599 26.7717 98.6329 26.7717C98.1262 26.7717 97.5754 26.8153 97.0026 26.9025C96.4078 26.9897 95.857 27.0986 95.3283 27.273V25.268C95.879 25.0937 96.4959 24.9629 97.1568 24.8758C97.8178 24.7886 98.4787 24.745 99.0956 24.745C100.351 24.7232 101.343 24.854 102.114 25.1373ZM100.461 33.6801C100.88 33.5275 101.277 33.3096 101.629 33.0045V30.7816L99.426 30.9778C98.6329 31.0649 98.0821 31.2175 97.7517 31.4572C97.4212 31.6969 97.245 32.0456 97.245 32.4815C97.245 32.9173 97.3992 33.266 97.7296 33.5275C98.0381 33.7672 98.5228 33.898 99.1616 33.898C99.6023 33.9198 100.043 33.8326 100.461 33.6801Z" fill="black"/>
<path d="M107.688 24.8757H109.979L110.199 26.2051H110.331C110.706 25.7475 111.191 25.377 111.763 25.1373C112.358 24.8757 112.975 24.7668 113.658 24.7668C114.033 24.7668 114.385 24.7886 114.716 24.854V27.2948C114.385 27.2294 113.989 27.2076 113.526 27.2076C112.975 27.2076 112.402 27.2948 111.852 27.4909C111.279 27.687 110.838 27.9703 110.486 28.3626V35.576H107.688V24.8757Z" fill="black"/>
<path d="M124.365 33.3967V35.5542C123.66 35.7068 122.955 35.7939 122.228 35.7939C120.84 35.7939 119.783 35.4671 119.056 34.8133C118.329 34.1595 117.976 33.157 117.976 31.8277V27.1204H115.905V24.9193H117.976L118.461 21.1056H120.752V24.9193H124.233V27.1204H120.752V31.3264C120.752 32.1545 120.928 32.743 121.281 33.0916C121.633 33.4403 122.206 33.6147 122.955 33.6147C123.352 33.5493 123.814 33.5057 124.365 33.3967Z" fill="black"/>
<path d="M126.811 22.6965C126.524 22.4568 126.37 22.1081 126.37 21.6504C126.37 21.1928 126.524 20.8441 126.811 20.6044C127.097 20.3646 127.538 20.2339 128.132 20.2339C128.705 20.2339 129.146 20.3646 129.454 20.6044C129.741 20.8441 129.895 21.1928 129.895 21.6504C129.895 22.1081 129.741 22.4568 129.454 22.6965C129.168 22.9362 128.727 23.0452 128.132 23.0452C127.538 23.0452 127.097 22.9362 126.811 22.6965ZM126.722 35.576V24.8758H129.52V35.576H126.722Z" fill="black"/>
<path d="M133.927 34.3775C132.891 33.4404 132.362 32.0674 132.362 30.2586C132.362 28.4498 132.913 27.0769 133.993 26.1398C135.072 25.2027 136.658 24.7232 138.751 24.7232C139.787 24.7232 140.734 24.8322 141.571 25.0501V27.2076C141.087 27.1204 140.668 27.0333 140.25 26.9897C139.853 26.9461 139.434 26.9243 139.016 26.9243C137.716 26.9243 136.769 27.1858 136.152 27.7306C135.535 28.2755 135.226 29.1036 135.226 30.2586C135.226 31.3918 135.513 32.2418 136.108 32.7866C136.703 33.3314 137.562 33.6147 138.729 33.6147C139.148 33.6147 139.589 33.5929 140.029 33.5275C140.47 33.4622 140.977 33.3532 141.549 33.2006V35.3581C140.602 35.6632 139.567 35.8158 138.421 35.8158C136.46 35.7722 134.962 35.3145 133.927 34.3775Z" fill="black"/>
<path d="M144.215 35.576V19.7326H147.013V35.576H144.215Z" fill="black"/>
<path d="M160.364 30.9995H152.653C152.697 31.6533 152.851 32.1981 153.116 32.5904C153.38 32.9827 153.821 33.2878 154.371 33.4839C154.944 33.6801 155.693 33.7672 156.641 33.7672C157.566 33.7672 158.579 33.6365 159.725 33.375V35.3581C158.579 35.6196 157.412 35.7504 156.244 35.7504C154.085 35.7504 152.499 35.2927 151.441 34.3992C150.384 33.5057 149.877 32.111 149.877 30.2368C149.877 29.0818 150.097 28.0793 150.516 27.2512C150.935 26.423 151.551 25.7911 152.367 25.3552C153.182 24.9193 154.151 24.7014 155.297 24.7014C156.949 24.7014 158.205 25.1809 159.086 26.1615C159.967 27.1422 160.386 28.5152 160.386 30.324V30.9995H160.364ZM153.314 27.1858C152.873 27.6652 152.653 28.428 152.631 29.4523H157.764C157.742 28.428 157.522 27.687 157.081 27.1858C156.663 26.7064 156.024 26.4448 155.209 26.4448C154.371 26.4448 153.755 26.6846 153.314 27.1858Z" fill="black"/>
<path d="M92.1779 41.7869H83.9383V45.8186H91.1204V48.0197H83.9383V54.0999H81.0742V39.5859H92.1779V41.7869Z" fill="black"/>
<path d="M96.0994 53.6641C95.2401 53.25 94.5792 52.618 94.1166 51.7899C93.6539 50.9618 93.4116 49.9375 93.4116 48.7607C93.4116 47.5839 93.6319 46.5596 94.0945 45.7315C94.5572 44.9034 95.2181 44.2932 96.0773 43.8573C96.9365 43.4433 97.95 43.2253 99.1396 43.2253C100.329 43.2253 101.365 43.4433 102.224 43.8573C103.083 44.2714 103.744 44.8816 104.185 45.7097C104.647 46.5378 104.868 47.5403 104.868 48.7607C104.868 49.9375 104.625 50.9618 104.163 51.7899C103.7 52.618 103.017 53.25 102.158 53.6641C101.299 54.0999 100.285 54.2961 99.1396 54.2961C97.972 54.2961 96.9586 54.0999 96.0994 53.6641ZM102.07 48.7607C102.07 47.5839 101.827 46.734 101.321 46.1892C100.814 45.6443 100.087 45.3828 99.1396 45.3828C98.1923 45.3828 97.4653 45.6443 96.9586 46.1892C96.4519 46.734 96.2095 47.5839 96.2095 48.7389C96.2095 51.0054 97.2009 52.1604 99.1617 52.1604C101.1 52.1604 102.07 51.0272 102.07 48.7607Z" fill="black"/>
<path d="M107.732 43.3996H110.023L110.243 44.729H110.375C110.75 44.2714 111.235 43.9009 111.807 43.6612C112.402 43.3996 113.019 43.2907 113.702 43.2907C114.077 43.2907 114.429 43.3125 114.76 43.3778V45.8186C114.429 45.7533 114.033 45.7315 113.57 45.7315C113.019 45.7315 112.446 45.8186 111.896 46.0148C111.323 46.2109 110.882 46.4942 110.53 46.8865V54.0999H107.732V43.3996Z" fill="black"/>
<path d="M132.208 43.3997H134.808L131.481 54.0999H128.309L125.709 45.8622L123.065 54.0999H119.871L116.522 43.3997H119.232L121.611 51.3758L124.123 43.3997H127.295L129.763 51.3104L132.208 43.3997Z" fill="black"/>
<path d="M143.995 43.6611C144.766 43.9445 145.317 44.4021 145.691 45.0559C146.066 45.7097 146.242 46.6032 146.242 47.7364V54.0999H143.907L143.708 53.0321H143.576C143.18 53.4461 142.695 53.7512 142.078 53.9691C141.483 54.1871 140.844 54.296 140.161 54.296C139.324 54.296 138.641 54.1653 138.046 53.9038C137.474 53.6423 137.033 53.2936 136.725 52.8359C136.416 52.3783 136.284 51.8552 136.284 51.245C136.284 50.2644 136.658 49.5016 137.43 48.9568C138.179 48.412 139.39 48.0851 141.043 47.9761L143.488 47.7582V47.5403C143.488 46.9519 143.378 46.516 143.18 46.1891C142.981 45.8622 142.651 45.6443 142.232 45.4917C141.814 45.361 141.241 45.2956 140.514 45.2956C140.007 45.2956 139.456 45.3392 138.884 45.4264C138.289 45.5135 137.738 45.6225 137.209 45.7968V43.7919C137.76 43.6176 138.377 43.4868 139.038 43.3996C139.699 43.3125 140.36 43.2689 140.977 43.2689C142.232 43.2471 143.246 43.3778 143.995 43.6611ZM142.364 52.2039C142.783 52.0514 143.18 51.8334 143.532 51.5283V49.3055L141.329 49.5016C140.536 49.5888 139.985 49.7413 139.655 49.9811C139.324 50.2208 139.148 50.5695 139.148 51.0053C139.148 51.4412 139.302 51.7899 139.633 52.0514C139.941 52.2911 140.426 52.4219 141.065 52.4219C141.483 52.4436 141.924 52.3565 142.364 52.2039Z" fill="black"/>
<path d="M149.569 43.3996H151.86L152.08 44.729H152.212C152.587 44.2714 153.072 43.9009 153.644 43.6612C154.239 43.3996 154.856 43.2907 155.539 43.2907C155.914 43.2907 156.266 43.3125 156.597 43.3778V45.8186C156.266 45.7533 155.87 45.7315 155.407 45.7315C154.856 45.7315 154.283 45.8186 153.733 46.0148C153.16 46.2109 152.719 46.4942 152.367 46.8865V54.0999H149.569V43.3996Z" fill="black"/>
<path d="M160.32 53.7077C159.571 53.3372 158.976 52.7488 158.535 51.9642C158.095 51.1797 157.874 50.1772 157.874 48.9786C157.874 47.7364 158.117 46.6904 158.601 45.8405C159.086 44.9687 159.791 44.315 160.738 43.8791C161.664 43.4433 162.787 43.2253 164.109 43.2253C164.704 43.2253 165.409 43.2689 166.202 43.3779V38.2566H169V54.0999H166.665L166.511 52.9449H166.356C165.938 53.359 165.431 53.6859 164.836 53.9256C164.241 54.1653 163.602 54.2743 162.897 54.2743C161.928 54.2743 161.069 54.0999 160.32 53.7077ZM165.034 51.7899C165.497 51.6156 165.872 51.354 166.202 50.9836V45.5136C165.585 45.3828 164.946 45.3174 164.285 45.3174C163.052 45.3174 162.148 45.6007 161.554 46.1674C160.959 46.734 160.65 47.6057 160.65 48.7825C160.65 50.9618 161.642 52.0514 163.602 52.0514C164.109 52.0514 164.594 51.9642 165.034 51.7899Z" fill="black"/>
<path d="M35.0514 25.5732C29.9842 25.5732 25.8424 29.6484 25.8424 34.6825C25.8424 39.7167 29.9622 43.7919 35.0514 43.7919C40.1185 43.7919 44.2603 39.7167 44.2603 34.6825C44.2603 29.6484 40.1405 25.5732 35.0514 25.5732ZM35.0514 39.0847C32.5839 39.0847 30.6011 37.1016 30.6011 34.6825C30.6011 32.2418 32.6059 30.2804 35.0514 30.2804C37.5188 30.2804 39.5016 32.2635 39.5016 34.6825C39.5237 37.1016 37.5188 39.0847 35.0514 39.0847Z" fill="black"/>
<path d="M52.5881 30.738L50.9357 26.3359L46.4855 27.9703L48.1378 32.3725L52.5881 30.738Z" fill="black"/>
<path d="M49.9003 44.4239C50.9798 42.8112 51.7949 41.0678 52.2796 39.1936L52.8745 36.9272V36.9054L48.292 35.7068H48.27L47.6531 37.9732C46.133 43.6176 40.9337 47.5839 35.0293 47.5839C31.5484 47.5839 28.2658 46.2327 25.7983 43.7919C23.3309 41.3511 21.9649 38.104 21.9649 34.6607C21.9649 31.2175 23.3309 27.9703 25.7983 25.5295C28.2658 23.0887 31.5484 21.7376 35.0293 21.7376C37.6731 21.7376 40.2287 22.5221 42.4097 24.004L44.3705 25.3334L47.0583 21.4543L45.0975 20.1249C42.1233 18.0982 38.6424 17.0303 35.0293 17.0303C32.628 17.0303 30.2927 17.488 28.0896 18.4251C25.9746 19.3186 24.0579 20.5826 22.4276 22.1952C20.7973 23.8079 19.4975 25.7039 18.6162 27.796C17.6909 29.9753 17.2062 32.2853 17.2062 34.6607C17.2062 37.0361 17.6689 39.3462 18.6162 41.5255C19.5195 43.6176 20.7973 45.5135 22.4276 47.1262C24.0579 48.7389 25.9746 50.0247 28.0896 50.8964C30.2927 51.8117 32.628 52.2911 35.0293 52.2911C37.0562 52.2911 39.039 51.9642 40.9116 51.3104C42.7402 50.6784 44.4366 49.7631 45.9788 48.5863C47.5209 47.4095 48.8428 46.0148 49.9003 44.4239Z" fill="black"/>
<path d="M33.6854 13.1513L32.8923 8.53119V8.5094L28.1997 9.31573L29.0149 13.914V13.9358L33.6854 13.1513Z" fill="black"/>
<path d="M58.228 47.257C59.2855 45.361 60.1007 43.3561 60.6294 41.2639C61.2022 39.1283 61.4886 36.9054 61.4886 34.6607C61.4886 31.6097 60.9599 28.6241 59.9244 25.791C58.933 23.0452 57.479 20.4954 55.6063 18.2289C53.7557 15.9843 51.5747 14.0447 49.0852 12.4974C46.5516 10.9283 43.7977 9.79512 40.8896 9.16313L38.5764 8.6619L37.5409 13.2384V13.2602L39.8542 13.7832C42.2335 14.3062 44.5027 15.2433 46.5736 16.5291C48.6005 17.7931 50.407 19.384 51.9272 21.2364C53.4473 23.1105 54.637 25.2026 55.4741 27.4473C56.3334 29.7791 56.7519 32.2199 56.7519 34.7261C56.7519 36.5567 56.5096 38.3873 56.047 40.1525C55.6063 41.8524 54.9234 43.5086 54.0642 45.0559L52.9186 47.1044L57.0824 49.3709L58.228 47.257Z" fill="black"/>
<path d="M16.1487 24.2002C17.8892 21.1274 20.4228 18.4905 23.441 16.5727L25.4458 15.3087L22.9123 11.3642V11.3424L20.9075 12.6064C17.2062 14.9164 14.1219 18.1418 12.0069 21.8901C10.9274 23.8079 10.0902 25.8346 9.51741 27.9485C8.92257 30.1278 8.63617 32.3943 8.63617 34.6607C8.63617 38.1912 9.34116 41.6126 10.7071 44.838C12.0289 47.9543 13.9456 50.7438 16.3691 53.141C18.7925 55.5382 21.6124 57.4342 24.7629 58.7418C28.0235 60.1147 31.4823 60.7903 35.0514 60.7903C37.5188 60.7903 39.9863 60.4634 42.3436 59.7878L44.6349 59.134L43.335 54.6229L41.0438 55.2549C39.1051 55.7998 37.1003 56.0831 35.0734 56.0831C29.2792 56.0831 23.8376 53.8602 19.7398 49.8067C17.735 47.8236 16.1928 45.5353 15.0913 42.9856C13.9677 40.3486 13.3949 37.5374 13.3949 34.6389C13.3949 32.7647 13.6372 30.9124 14.1219 29.1253C14.5625 27.4255 15.2455 25.7693 16.1487 24.2002Z" fill="black"/>
<path d="M53.4032 53.6205L50.429 49.9593L46.7278 52.9013L49.702 56.5625L53.4032 53.6205Z" fill="black"/>
<path d="M64.2205 26.1833L68.6487 24.5053L67.8116 22.326L66.9523 20.1249L62.5241 21.803L64.2205 26.1833Z" fill="black"/>
<path d="M21.987 7.63765C23.9918 6.67877 26.1068 5.95961 28.2658 5.45837C31.3722 4.73921 34.6108 4.54307 37.8273 4.82638C42.1233 5.21865 46.1771 6.46084 49.8783 8.50937C53.4693 10.4925 56.5757 13.1512 59.0872 16.3984L60.5193 18.2508V18.2726L64.2645 15.4177H64.2866L62.8325 13.5435C61.4005 11.6911 59.7702 9.99128 57.9857 8.46578C56.2012 6.91849 54.2404 5.56734 52.1695 4.41232C47.8734 2.01511 43.1588 0.576781 38.2238 0.140925C34.5226 -0.185967 30.7774 0.0537537 27.1643 0.881881C24.6748 1.44849 22.2293 2.29841 19.9161 3.40985L17.7791 4.43411L19.8279 8.66192L21.987 7.63765Z" fill="black"/>
<path d="M69.9926 32.111L69.8163 29.7792L65.0796 30.1279L65.2559 32.4597C65.3 33.1789 65.322 33.9198 65.322 34.639C65.322 35.5543 65.2779 36.4696 65.1898 37.3849C64.617 43.5086 62.2156 49.2184 58.25 53.9038C56.3333 56.1703 54.0862 58.1316 51.5966 59.7443C49.0851 61.3787 46.3312 62.6209 43.4672 63.4491L41.198 64.1029L42.5199 68.5922V68.614L44.8111 67.9602C48.1378 67.0013 51.3102 65.563 54.2183 63.667C57.1044 61.7928 59.7041 59.5264 61.9072 56.9112C66.5117 51.4848 69.2876 44.8816 69.9265 37.7989C70.0146 36.7529 70.0807 35.6632 70.0807 34.6172C70.1027 33.7891 70.0587 32.9609 69.9926 32.111Z" fill="black"/>
<path d="M12.9322 14.0665L16.4572 10.9066L13.2847 7.44153H13.2627L9.75977 10.5797L12.9322 14.0665Z" fill="black"/>
<path d="M17.4926 59.0905C14.915 57.2599 12.6458 55.0588 10.7291 52.5308C8.81241 49.9811 7.33633 47.1916 6.32291 44.206C5.28745 41.1332 4.7587 37.9296 4.7587 34.6825C4.7587 33.789 4.80276 32.8519 4.89089 31.9366C5.1112 29.6484 5.57385 27.3819 6.30087 25.2026C7.00587 23.0887 7.9532 21.062 9.12085 19.166L10.3326 17.1611V17.1393L6.30087 14.7639H6.27884L5.04511 16.7688C3.70121 18.9699 2.59966 21.3235 1.78451 23.7643C0.947334 26.2705 0.396559 28.8856 0.154217 31.5444C0.0660931 32.6122 0 33.68 0 34.7261C0 38.4963 0.616869 42.201 1.82858 45.7315C2.99622 49.1747 4.71464 52.4219 6.91774 55.3421C9.12085 58.2623 11.7425 60.8121 14.7388 62.926C17.779 65.0835 21.1498 66.718 24.7188 67.8076L26.988 68.505L28.376 64.0156L26.1068 63.3183C23.0445 62.3594 20.1364 60.9429 17.4926 59.0905Z" fill="black"/>
<path d="M32.3856 69.2895L37.1222 69.3549L37.1883 64.6694V64.6476L32.4296 64.604L32.3856 69.2895Z" fill="black"/>
</svg>
